<mxfile host="app.diagrams.net" modified="2021-09-02T07:00:20.399Z" agent="5.0 (Windows NT 10.0; Win64; x64) AppleWebKit/537.36 (KHTML, like Gecko) Chrome/92.0.4515.159 Safari/537.36" etag="Yr5dGvXYUBWsW8gakm23" version="15.0.3" type="github">
  <diagram id="nAknRRVVfW7W445bDHd9" name="第 1 页">
    <mxGraphModel dx="1422" dy="741" grid="0" gridSize="10" guides="1" tooltips="1" connect="1" arrows="1" fold="1" page="0" pageScale="1" pageWidth="827" pageHeight="1169" math="0" shadow="0">
      <root>
        <mxCell id="0" />
        <mxCell id="1" parent="0" />
        <mxCell id="-Lt7QYM0vewo3_yzmilD-3" style="edgeStyle=orthogonalEdgeStyle;rounded=0;orthogonalLoop=1;jettySize=auto;html=1;entryX=0.31;entryY=0.867;entryDx=0;entryDy=0;entryPerimeter=0;" edge="1" parent="1" source="-Lt7QYM0vewo3_yzmilD-1" target="-Lt7QYM0vewo3_yzmilD-2">
          <mxGeometry relative="1" as="geometry" />
        </mxCell>
        <mxCell id="-Lt7QYM0vewo3_yzmilD-5" value="" style="edgeStyle=orthogonalEdgeStyle;rounded=0;orthogonalLoop=1;jettySize=auto;html=1;" edge="1" parent="1" source="-Lt7QYM0vewo3_yzmilD-1" target="-Lt7QYM0vewo3_yzmilD-4">
          <mxGeometry relative="1" as="geometry" />
        </mxCell>
        <mxCell id="-Lt7QYM0vewo3_yzmilD-1" value="" style="html=1;dashed=0;whitespace=wrap;" vertex="1" parent="1">
          <mxGeometry x="50" y="300" width="100" height="50" as="geometry" />
        </mxCell>
        <mxCell id="-Lt7QYM0vewo3_yzmilD-2" value="" style="html=1;dashed=0;whitespace=wrap;shape=mxgraph.dfd.dataStoreID;align=left;spacingLeft=3;points=[[0,0],[0.5,0],[1,0],[0,0.5],[1,0.5],[0,1],[0.5,1],[1,1]];" vertex="1" parent="1">
          <mxGeometry x="220" y="430" width="100" height="30" as="geometry" />
        </mxCell>
        <mxCell id="-Lt7QYM0vewo3_yzmilD-4" value="" style="html=1;dashed=0;whitespace=wrap;" vertex="1" parent="1">
          <mxGeometry x="498" y="171" width="100" height="50" as="geometry" />
        </mxCell>
      </root>
    </mxGraphModel>
  </diagram>
</mxfile>
